# Blender 4.4.3
# www.blender.org
mtllib gaskin_robot.mtl
o home
v 4.407088 0.576233 0.745830
v 4.576595 2.661168 0.745830
v 2.322154 2.593365 0.745830
v 2.288252 0.745740 0.745830
v 4.576595 2.661168 -1.644216
v 4.407088 0.576233 -1.644216
v 2.322154 2.593365 -1.644216
v 2.288252 0.745740 -1.644216
vn -0.0000 -0.0000 -1.0000
vn -0.0000 -0.0000 1.0000
vn 0.9998 -0.0183 -0.0000
vn -0.9967 0.0810 -0.0000
vn 0.0797 0.9968 -0.0000
vn 0.0301 -0.9995 -0.0000
vt 0.000000 0.000000
s 0
f 1/1/1 3/1/1 2/1/1
f 6/1/2 7/1/2 8/1/2
f 4/1/3 7/1/3 3/1/3
f 2/1/4 6/1/4 1/1/4
f 1/1/5 8/1/5 4/1/5
f 3/1/6 5/1/6 2/1/6
f 1/1/1 4/1/1 3/1/1
f 6/1/2 5/1/2 7/1/2
f 4/1/3 8/1/3 7/1/3
f 2/1/4 5/1/4 6/1/4
f 1/1/5 6/1/5 8/1/5
f 3/1/6 7/1/6 5/1/6
o living_room
v 4.424039 -3.458031 0.745830
v 4.407088 0.576233 0.745830
v 4.339286 4.457941 0.745830
v 4.576595 2.661168 0.745830
v 1.711929 -3.729242 0.745830
v -3.000363 -3.695340 0.745830
v -3.017314 -2.491842 0.745830
v -5.068347 -2.271483 0.745830
v -5.051396 0.050761 0.745830
v -2.491843 0.050761 0.745830
v -2.491843 0.220268 0.745830
v -5.119199 0.372825 0.745830
v -4.932742 3.000181 0.745830
v -0.322155 2.881526 0.745830
v -0.305204 4.390138 0.745830
v 3.864666 4.627447 0.745830
v 2.322154 2.593365 0.745830
v 2.288252 0.745740 0.745830
v 4.424039 -3.458031 -1.644216
v 1.711929 -3.729242 -1.644216
v 4.407088 0.576233 -1.644216
v 4.339286 4.457941 -1.644216
v 4.576595 2.661168 -1.644216
v -3.000363 -3.695340 -1.644216
v -3.017314 -2.491842 -1.644216
v -5.068347 -2.271483 -1.644216
v -5.051396 0.050761 -1.644216
v -2.491843 0.050761 -1.644216
v -2.491843 0.220268 -1.644216
v -5.119199 0.372825 -1.644216
v -4.932742 3.000181 -1.644216
v -0.322155 2.881526 -1.644216
v -0.305204 4.390138 -1.644216
v 3.864666 4.627447 -1.644216
v 2.322154 2.593365 -1.644216
v 2.288252 0.745740 -1.644216
vn -0.0000 -0.0000 -1.0000
vn -0.0000 -0.0000 1.0000
vn 0.9999 -0.0112 -0.0000
vn 0.1068 0.9943 -0.0000
vn 0.0568 -0.9984 -0.0000
vn 1.0000 -0.0073 -0.0000
vn -0.3363 -0.9417 -0.0000
vn -0.0000 -1.0000 -0.0000
vn -0.0995 0.9950 -0.0000
vn -0.0301 0.9995 -0.0000
vn 1.0000 -0.0000 -0.0000
vn -1.0000 -0.0042 -0.0000
vn -0.9998 0.0183 -0.0000
vn 0.0580 0.9983 -0.0000
vn -0.9914 -0.1309 -0.0000
vn -0.0797 -0.9968 -0.0000
vn 0.9975 -0.0708 -0.0000
vn 0.0072 1.0000 -0.0000
vn -0.0257 -0.9997 -0.0000
vn 0.9999 0.0141 -0.0000
vt 0.000000 0.000000
s 0
f 19/2/7 21/2/7 22/2/7
f 39/2/8 38/2/8 37/2/8
f 22/2/9 41/2/9 23/2/9
f 15/2/10 34/2/10 16/2/10
f 23/2/11 42/2/11 24/2/11
f 16/2/12 35/2/12 17/2/12
f 24/2/13 30/2/13 11/2/13
f 17/2/14 36/2/14 18/2/14
f 9/2/15 28/2/15 13/2/15
f 12/2/16 43/2/16 25/2/16
f 18/2/17 37/2/17 19/2/17
f 10/2/18 27/2/18 9/2/18
f 25/2/19 44/2/19 26/2/19
f 19/2/20 38/2/20 20/2/20
f 11/2/21 31/2/21 12/2/21
f 26/2/22 29/2/22 10/2/22
f 20/2/23 39/2/23 21/2/23
f 13/2/24 32/2/24 14/2/24
f 21/2/25 40/2/25 22/2/25
f 14/2/26 33/2/26 15/2/26
f 10/2/7 9/2/7 26/2/7
f 9/2/7 13/2/7 26/2/7
f 13/2/7 14/2/7 15/2/7
f 15/2/7 16/2/7 17/2/7
f 15/2/7 17/2/7 18/2/7
f 13/2/7 15/2/7 18/2/7
f 26/2/7 13/2/7 18/2/7
f 11/2/7 12/2/7 24/2/7
f 12/2/7 25/2/7 24/2/7
f 25/2/7 26/2/7 22/2/7
f 26/2/7 18/2/7 19/2/7
f 19/2/7 20/2/7 21/2/7
f 26/2/7 19/2/7 22/2/7
f 22/2/7 23/2/7 25/2/7
f 23/2/7 24/2/7 25/2/7
f 28/2/8 27/2/8 44/2/8
f 27/2/8 29/2/8 44/2/8
f 33/2/8 32/2/8 28/2/8
f 35/2/8 34/2/8 33/2/8
f 36/2/8 35/2/8 33/2/8
f 33/2/8 28/2/8 36/2/8
f 28/2/8 44/2/8 36/2/8
f 43/2/8 31/2/8 42/2/8
f 31/2/8 30/2/8 42/2/8
f 44/2/8 43/2/8 40/2/8
f 36/2/8 44/2/8 37/2/8
f 37/2/8 44/2/8 40/2/8
f 42/2/8 41/2/8 43/2/8
f 41/2/8 40/2/8 43/2/8
f 40/2/8 39/2/8 37/2/8
f 22/2/9 40/2/9 41/2/9
f 15/2/10 33/2/10 34/2/10
f 23/2/11 41/2/11 42/2/11
f 16/2/12 34/2/12 35/2/12
f 24/2/13 42/2/13 30/2/13
f 17/2/14 35/2/14 36/2/14
f 9/2/15 27/2/15 28/2/15
f 12/2/16 31/2/16 43/2/16
f 18/2/17 36/2/17 37/2/17
f 10/2/18 29/2/18 27/2/18
f 25/2/19 43/2/19 44/2/19
f 19/2/20 37/2/20 38/2/20
f 11/2/21 30/2/21 31/2/21
f 26/2/22 44/2/22 29/2/22
f 20/2/23 38/2/23 39/2/23
f 13/2/24 28/2/24 32/2/24
f 21/2/25 39/2/25 40/2/25
f 14/2/26 32/2/26 33/2/26
