# Blender 3.6.22
# www.blender.org
mtllib gaskin_robot_.mtl
o home
v -4.440989 -0.525381 1.025178
v -4.661348 -2.796772 1.025178
v -2.339104 -2.779822 1.025178
v -2.288252 -0.711838 1.025178
v -4.661348 -2.796772 -1.786738
v -4.440989 -0.525381 -1.786738
v -2.339104 -2.779822 -1.786738
v -2.288252 -0.711838 -1.786738
vn -0.0000 -0.0000 -1.0000
vn -0.0000 -0.0000 1.0000
vn -0.0863 -0.9963 -0.0000
vn -0.0073 1.0000 -0.0000
vn -0.9997 0.0246 -0.0000
vn 0.9953 -0.0966 -0.0000
vt 0.000000 0.000000
s 0
f 1/1/1 3/1/1 2/1/1
f 6/1/2 7/1/2 8/1/2
f 1/1/3 8/1/3 4/1/3
f 3/1/4 5/1/4 2/1/4
f 4/1/5 7/1/5 3/1/5
f 2/1/6 6/1/6 1/1/6
f 1/1/1 4/1/1 3/1/1
f 6/1/2 5/1/2 7/1/2
f 1/1/3 6/1/3 8/1/3
f 3/1/4 7/1/4 5/1/4
f 4/1/5 8/1/5 7/1/5
f 2/1/6 5/1/6 6/1/6
o living_room
v -4.305384 3.813995 1.025178
v -4.440989 -0.525381 1.025178
v -4.474891 -4.356236 1.025178
v -4.661348 -2.796772 1.025178
v 3.102066 3.746192 1.025178
v 3.119017 2.627447 1.025178
v 5.271754 2.271483 1.025178
v 5.271754 0.017041 1.025178
v 2.610497 -0.033811 1.025178
v 2.661349 -0.220268 1.025178
v 5.136148 -0.355874 1.025178
v 4.915790 -3.101885 1.025178
v 0.254351 -2.949328 1.025178
v 0.067894 -4.525742 1.025178
v 0.067894 -4.525742 1.025178
v -2.339104 -2.779822 1.025178
v -2.288252 -0.711838 1.025178
v -4.305384 3.813995 -1.786738
v 3.102066 3.746192 -1.786738
v -4.440989 -0.525381 -1.786738
v -4.474891 -4.356236 -1.786738
v -4.661348 -2.796772 -1.786738
v 3.119017 2.627447 -1.786738
v 5.271754 2.271483 -1.786738
v 5.271754 0.017041 -1.786738
v 2.610497 -0.033811 -1.786738
v 2.661349 -0.220268 -1.786738
v 5.136148 -0.355874 -1.786738
v 4.915790 -3.101885 -1.786738
v 0.254351 -2.949328 -1.786738
v 0.067894 -4.525742 -1.786738
v 0.067894 -4.525742 -1.786738
v -2.339104 -2.779822 -1.786738
v -2.288252 -0.711838 -1.786738
vn -0.0000 -0.0000 1.0000
vn 0.0327 0.9995 -0.0000
vn -0.9999 -0.0151 -0.0000
vn -0.9931 0.1175 -0.0000
vn -0.1631 -0.9866 -0.0000
vn -1.0000 -0.0000 -0.0000
vn 0.0373 0.9993 -0.0000
vn -0.0191 0.9998 -0.0000
vn 0.0073 -1.0000 -0.0000
vn -0.9648 -0.2631 -0.0000
vn -0.0092 -1.0000 -0.0000
vn 0.9997 -0.0246 -0.0000
vn -0.0547 -0.9985 -0.0000
vn 0.9995 -0.0312 -0.0000
vn 0.0863 0.9963 -0.0000
vn -0.9968 0.0800 -0.0000
vn 0.9929 0.1187 -0.0000
vn -0.0000 -0.0000 -1.0000
vt 0.000000 0.000000
s 0
f 22/2/7 23/2/7 11/2/7
f 29/2/7 40/2/7 39/2/7
f 20/2/8 38/2/8 21/2/8
f 13/2/9 31/2/9 14/2/9
f 21/2/10 39/2/10 22/2/10
f 14/2/11 32/2/11 15/2/11
f 22/2/7 40/2/7 23/2/7
f 15/2/12 33/2/12 16/2/12
f 23/2/13 29/2/13 11/2/13
f 16/2/14 34/2/14 17/2/14
f 12/2/15 41/2/15 24/2/15
f 17/2/16 35/2/16 18/2/16
f 9/2/17 27/2/17 13/2/17
f 24/2/18 42/2/18 25/2/18
f 18/2/19 36/2/19 19/2/19
f 10/2/20 26/2/20 9/2/20
f 25/2/21 28/2/21 10/2/21
f 19/2/22 37/2/22 20/2/22
f 11/2/23 30/2/23 12/2/23
f 9/2/24 13/2/24 14/2/24
f 14/2/24 15/2/24 16/2/24
f 14/2/24 16/2/24 17/2/24
f 10/2/24 9/2/24 25/2/24
f 9/2/24 14/2/24 25/2/24
f 25/2/24 14/2/24 17/2/24
f 11/2/24 12/2/24 24/2/24
f 24/2/24 25/2/24 21/2/24
f 25/2/24 17/2/24 21/2/24
f 18/2/24 19/2/24 20/2/24
f 17/2/24 18/2/24 21/2/24
f 18/2/24 20/2/24 21/2/24
f 11/2/24 24/2/24 22/2/24
f 24/2/24 21/2/24 22/2/24
f 31/2/7 27/2/7 26/2/7
f 26/2/7 28/2/7 42/2/7
f 41/2/7 30/2/7 29/2/7
f 31/2/7 26/2/7 42/2/7
f 31/2/7 42/2/7 34/2/7
f 42/2/7 41/2/7 38/2/7
f 34/2/7 42/2/7 38/2/7
f 33/2/7 32/2/7 31/2/7
f 34/2/7 33/2/7 31/2/7
f 37/2/7 36/2/7 35/2/7
f 35/2/7 34/2/7 38/2/7
f 38/2/7 37/2/7 35/2/7
f 41/2/7 29/2/7 39/2/7
f 38/2/7 41/2/7 39/2/7
f 20/2/8 37/2/8 38/2/8
f 13/2/9 27/2/9 31/2/9
f 21/2/10 38/2/10 39/2/10
f 14/2/11 31/2/11 32/2/11
f 22/2/7 39/2/7 40/2/7
f 15/2/12 32/2/12 33/2/12
f 23/2/13 40/2/13 29/2/13
f 16/2/14 33/2/14 34/2/14
f 12/2/15 30/2/15 41/2/15
f 17/2/16 34/2/16 35/2/16
f 9/2/17 26/2/17 27/2/17
f 24/2/18 41/2/18 42/2/18
f 18/2/19 35/2/19 36/2/19
f 10/2/20 28/2/20 26/2/20
f 25/2/21 42/2/21 28/2/21
f 19/2/22 36/2/22 37/2/22
f 11/2/23 29/2/23 30/2/23
